<svg id="Layer_1" xmlns="http://www.w3.org/2000/svg" width="128" height="168" viewBox="0 0 128 168"><style>.st0{fill:#d1d1d1}.st1{fill:#b5b5b5}.st2{fill:#a0a0a0}.st3{fill:#939393}.st4{fill:#ff8a4c}.st5{fill:#bfbfbf}.st6{fill:#fa2}.st7{fill:#ffc5a5}</style><g id="_Group__1_"><g id="_Group_2_1_"><path class="st0" d="M11.4 15h25.9v1.9H11.4z" id="_Group_3_1_"/></g><g id="_Group_4_1_"><path class="st1" d="M11.6 24.8h10.8v1.9H11.6z" id="_Group_5_1_"/></g><g id="_Group_6_1_"><path class="st2" d="M11.4 34.7h25.9v1.9H11.4z" id="_Group_7_1_"/></g><g id="_Group_8_1_"><path class="st1" d="M11.4 44.6h25.9v1.9H11.4z" id="_Group_9_1_"/></g><g id="_Group_10_1_"><path class="st3" d="M11.4 54.4h25.9v1.9H11.4z" id="_Group_11_1_"/></g><g id="_Group_12_1_"><path class="st4" d="M11.6 64.3h13.5v1.9H11.6z" id="_Group_13_1_"/></g><g id="_Group_14_1_"><path class="st1" d="M11.4 83.9h25.9v1.9H11.4z" id="_Group_15_1_"/></g><g id="_Group_16_1_"><path class="st3" d="M11.4 93.9h25.9v1.9H11.4z" id="_Group_17_1_"/></g><g id="_Group_18_1_"><path class="st5" d="M35.9 15h16.6v1.9H35.9z" id="_Group_19_1_"/></g><g id="_Group_20_1_"><path class="st3" d="M65 15h15.3v1.9H65z" id="_Group_21_1_"/></g><g id="_Group_22_1_"><path class="st2" d="M80.1 15h9.6v1.9h-9.6z" id="_Group_23_1_"/></g><g id="_Group_24_1_"><path class="st6" d="M89.6 15h9.6v1.9h-9.6z" id="_Group_25_1_"/></g><g id="_Group_26_1_"><path class="st1" d="M99.2 15h9.6v1.9h-9.6z" id="_Group_27_1_"/></g><g id="_Group_28_1_"><path class="st4" d="M33.2 24.8H40v1.9h-6.8z" id="_Group_29_1_"/></g><g id="_Group_30_1_"><path class="st2" d="M44.1 24.8h6.8v1.9h-6.8z" id="_Group_31_1_"/></g><g id="_Group_32_1_"><path class="st0" d="M50.5 24.8h18.4v1.9H50.5z" id="_Group_33_1_"/></g><g id="_Group_34_1_"><path class="st1" d="M73.2 24.8h25.9v1.9H73.2z" id="_Group_35_1_"/></g><g id="_Group_36_1_"><path class="st4" d="M97.8 24.8h16.6v1.9H97.8z" id="_Group_37_1_"/></g><g id="_Group_38_1_"><path class="st1" d="M24.3 34.7h25.9v1.9H24.3z" id="_Group_39_1_"/></g><g id="_Group_40_1_"><path class="st0" d="M59.5 34.7h15.3v1.9H59.5z" id="_Group_41_1_"/></g><g id="_Group_42_1_"><path class="st3" d="M67.1 34.7h15.3v1.9H67.1z" id="_Group_43_1_"/></g><g id="_Group_44_1_"><path class="st2" d="M90.5 34.7h13.2v1.9H90.5z" id="_Group_45_1_"/></g><g id="_Group_46_1_"><path class="st7" d="M103.1 34.7h8.4v1.9h-8.4z" id="_Group_47_1_"/></g><g id="_Group_48_1_"><path class="st0" d="M31.8 44.6h11v1.9h-11z" id="_Group_49_1_"/></g><g id="_Group_50_1_"><path class="st3" d="M42.1 44.6h11v1.9h-11z" id="_Group_51_1_"/></g><g id="_Group_52_1_"><path class="st2" d="M63.2 44.6h15.3v1.9H63.2z" id="_Group_53_1_"/></g><g id="_Group_54_1_"><path class="st3" d="M70.9 44.6h15.3v1.9H70.9z" id="_Group_55_1_"/></g><g id="_Group_56_1_"><path class="st0" d="M94.1 44.6h15.3v1.9H94.1z" id="_Group_57_1_"/></g><g id="_Group_58_1_"><path class="st2" d="M35.3 54.4h25.9v1.9H35.3z" id="_Group_59_1_"/></g><g id="_Group_60_1_"><path class="st5" d="M59.9 54.4h16.6v1.9H59.9z" id="_Group_61_1_"/></g><g id="_Group_62_1_"><path class="st4" d="M84.8 54.4H91v1.9h-6.2z" id="_Group_63_1_"/></g><g id="_Group_64_1_"><path class="st1" d="M91 54.4h6.2v1.9H91z" id="_Group_65_1_"/></g><g id="_Group_66_1_"><path class="st0" d="M104.7 54.4h8.4v1.9h-8.4z" id="_Group_67_1_"/></g><g id="_Group_68_1_"><path class="st2" d="M24.6 64.3h6.8v1.9h-6.8z" id="_Group_69_1_"/></g><g id="_Group_70_1_"><path class="st0" d="M31 64.3h18.4v1.9H31z" id="_Group_71_1_"/></g><g id="_Group_72_1_"><path class="st1" d="M53.6 64.3h25.9v1.9H53.6z" id="_Group_73_1_"/></g><g id="_Group_74_1_"><path class="st4" d="M78.2 64.3h16.6v1.9H78.2z" id="_Group_75_1_"/></g><g id="_Group_76_1_"><path class="st3" d="M93.7 64.3h6.8v1.9h-6.8z" id="_Group_77_1_"/></g><g id="_Group_10_2_"><path class="st3" d="M11.4 139.7h25.9v1.9H11.4z" id="_Group_11_2_"/></g><g id="_Group_12_2_"><path class="st4" d="M11.6 149.6h13.5v1.9H11.6z" id="_Group_13_2_"/></g><g id="_Group_58_2_"><path class="st2" d="M35.3 139.7h25.9v1.9H35.3z" id="_Group_59_2_"/></g><g id="_Group_60_2_"><path class="st5" d="M59.9 139.7h16.6v1.9H59.9z" id="_Group_61_2_"/></g><g id="_Group_62_2_"><path class="st4" d="M84.8 139.7H91v1.9h-6.2z" id="_Group_63_2_"/></g><g id="_Group_64_2_"><path class="st1" d="M91 139.7h6.2v1.9H91z" id="_Group_65_2_"/></g><g id="_Group_66_2_"><path class="st0" d="M104.7 139.7h8.4v1.9h-8.4z" id="_Group_67_2_"/></g><g id="_Group_68_2_"><path class="st2" d="M24.6 149.6h6.8v1.9h-6.8z" id="_Group_69_2_"/></g><g id="_Group_70_2_"><path class="st0" d="M31 149.6h14.6v1.9H31z" id="_Group_71_2_"/></g><g id="_Group_72_2_"><path class="st1" d="M49.3 149.6h30.3v1.9H49.3z" id="_Group_73_2_"/></g><g id="_Group_74_2_"><path class="st4" d="M78.2 149.6h16.6v1.9H78.2z" id="_Group_75_2_"/></g><g id="_Group_76_2_"><path class="st3" d="M101.3 149.6h6.8v1.9h-6.8z" id="_Group_77_2_"/></g><g id="_Group_78_1_"><path class="st2" d="M11.6 79.2h8.8v1.9h-8.8z" id="_Group_79_1_"/></g><g id="_Group_80_1_"><path class="st4" d="M29.1 74.1h5.6V76h-5.6z" id="_Group_81_1_"/></g><g id="_Group_82_1_"><path class="st2" d="M38 74.1h5.6V76H38z" id="_Group_83_1_"/></g><g id="_Group_84_1_"><path class="st0" d="M43.2 74.1h14.9V76H43.2z" id="_Group_85_1_"/></g><g id="_Group_86_1_"><path class="st1" d="M61.6 74.1h21.1V76H61.6z" id="_Group_87_1_"/></g><g id="_Group_88_1_"><path class="st4" d="M81.5 74.1H95V76H81.5z" id="_Group_89_1_"/></g><g id="_Group_90_1_"><path class="st1" d="M99.2 74.1h5.6V76h-5.6z" id="_Group_91_1_"/></g><g id="_Group_92_1_"><path class="st2" d="M107.5 74.1h5.6V76h-5.6z" id="_Group_93_1_"/></g><g id="_Group_94_1_"><path class="st3" d="M47.6 83.9H65v1.9H47.6z" id="_Group_95_1_"/></g><g id="_Group_96_1_"><path class="st2" d="M64.7 83.9h10.9v1.9H64.7z" id="_Group_97_1_"/></g><g id="_Group_98_1_"><path class="st6" d="M75.6 83.9h10.9v1.9H75.6z" id="_Group_99_1_"/></g><g id="_Group_100_1_"><path class="st0" d="M86.5 83.9h10.9v1.9H86.5z" id="_Group_101_1_"/></g><g id="_Group_102_1_"><path class="st2" d="M108.5 83.9h6.8v1.9h-6.8z" id="_Group_103_1_"/></g><g id="_Group_104_1_"><path class="st0" d="M45.6 93.9h15.3v1.9H45.6z" id="_Group_105_1_"/></g><g id="_Group_106_1_"><path class="st6" d="M53.2 93.9h15.3v1.9H53.2z" id="_Group_107_1_"/></g><g id="_Group_108_1_"><path class="st2" d="M76.7 93.9h13.2v1.9H76.7z" id="_Group_109_1_"/></g><g id="_Group_110_1_"><path class="st7" d="M89.2 93.9h8.4v1.9h-8.4z" id="_Group_111_1_"/></g><g id="_Group_112_1_"><path class="st0" d="M11.4 102.6h25.9v1.9H11.4z" id="_Group_113_1_"/></g><g id="_Group_114_1_"><path class="st1" d="M11.6 112.5h10.8v1.9H11.6z" id="_Group_115_1_"/></g><g id="_Group_116_1_"><path class="st2" d="M11.4 122.3h25.9v1.9H11.4z" id="_Group_117_1_"/></g><g id="_Group_118_1_"><path class="st1" d="M11.4 132.3h25.9v1.9H11.4z" id="_Group_119_1_"/></g><g id="_Group_120_1_"><path class="st5" d="M35.9 102.6h16.6v1.9H35.9z" id="_Group_121_1_"/></g><g id="_Group_122_1_"><path class="st3" d="M65 102.6h15.3v1.9H65z" id="_Group_123_1_"/></g><g id="_Group_124_1_"><path class="st2" d="M80.1 102.6h9.6v1.9h-9.6z" id="_Group_125_1_"/></g><g id="_Group_126_1_"><path class="st6" d="M89.6 102.6h9.6v1.9h-9.6z" id="_Group_127_1_"/></g><g id="_Group_128_1_"><path class="st1" d="M99.2 102.6h9.6v1.9h-9.6z" id="_Group_129_1_"/></g><g id="_Group_130_1_"><path class="st4" d="M33.2 112.5H40v1.9h-6.8z" id="_Group_131_1_"/></g><g id="_Group_132_1_"><path class="st2" d="M44.1 112.5h6.8v1.9h-6.8z" id="_Group_133_1_"/></g><g id="_Group_134_1_"><path class="st0" d="M50.5 112.5h18.4v1.9H50.5z" id="_Group_135_1_"/></g><g id="_Group_136_1_"><path class="st1" d="M73.2 112.5h16.7v1.9H73.2z" id="_Group_137_1_"/></g><g id="_Group_138_1_"><path class="st1" d="M24.3 122.3h25.9v1.9H24.3z" id="_Group_139_1_"/></g><g id="_Group_140_1_"><path class="st0" d="M59.5 122.3h15.3v1.9H59.5z" id="_Group_141_1_"/></g><g id="_Group_142_1_"><path class="st3" d="M67.1 122.3h15.3v1.9H67.1z" id="_Group_143_1_"/></g><g id="_Group_144_1_"><path class="st2" d="M90.5 122.3h13.2v1.9H90.5z" id="_Group_145_1_"/></g><g id="_Group_146_1_"><path class="st7" d="M103.1 122.3h8.4v1.9h-8.4z" id="_Group_147_1_"/></g><g id="_Group_148_1_"><path class="st0" d="M31.8 132.3h11v1.9h-11z" id="_Group_149_1_"/></g><g id="_Group_150_1_"><path class="st3" d="M42.1 132.3h11v1.9h-11z" id="_Group_151_1_"/></g><g id="_Group_152_1_"><path class="st2" d="M63.2 132.3h15.3v1.9H63.2z" id="_Group_153_1_"/></g><g id="_Group_154_1_"><path class="st3" d="M70.9 132.3h15.3v1.9H70.9z" id="_Group_155_1_"/></g><g id="_Group_156_1_"><path class="st0" d="M94.1 132.3h15.3v1.9H94.1z" id="_Group_157_1_"/></g></g></svg>