<svg id="Layer_1" xmlns="http://www.w3.org/2000/svg" width="192" height="38" viewBox="0 0 192 38"><style>.st0{fill:#222426}.st1{fill:#bcbbbb}.st2{fill:#f48024}</style><path class="st0" d="M43 23.1l-2.2-.2c-1.7-.1-2.3-.8-2.3-2 0-1.4 1-2.2 3-2.2 1.4 0 2.6.3 3.6 1.1l1.3-1.3c-1.2-1-2.9-1.5-4.8-1.5-2.9 0-5 1.5-5 4 0 2.2 1.4 3.4 4 3.6l2.2.2c1.6.1 2.2.8 2.2 2 0 1.6-1.4 2.4-3.6 2.4-1.7 0-3.1-.4-4.2-1.6L36 28.9c1.5 1.4 3.3 1.9 5.5 1.9 3.3 0 5.5-1.5 5.5-4.1 0-2.5-1.6-3.4-4-3.6zM59.9 17c-2.2 0-3.5.4-4.7 1.9l1.3 1.3c.8-1.1 1.7-1.5 3.4-1.5 2.5 0 3.5 1 3.5 2.9v1.3h-4.1c-3 0-4.7 1.5-4.7 3.9 0 1.1.3 2.1 1 2.8.9.9 1.9 1.2 3.8 1.2 1.8 0 2.8-.3 3.9-1.5v1.3h2v-9.2c0-2.8-1.8-4.4-5.4-4.4zm3.4 8.9c0 1.1-.2 1.9-.7 2.3-.9.8-1.9.9-3 .9-2.1 0-3.1-.7-3.1-2.3s1-2.4 3-2.4h3.8v1.5zm9.7-7.1c1.3 0 2.1.4 3.1 1.5l1.3-1.3c-1.4-1.5-2.6-2-4.4-2-3.4 0-6 2.3-6 6.9s2.6 6.9 6 6.9c1.9 0 3-.5 4.4-2l-1.3-1.3c-1 1.1-1.8 1.5-3.1 1.5s-2.4-.5-3.1-1.5c-.6-.9-.9-1.9-.9-3.6 0-1.7.3-2.8.9-3.6.7-1 1.8-1.5 3.1-1.5zm16.9-1.6h-2.5l-6.1 6v-12h-2v19.5h2v-4.9l2.4-2.4 4.5 7.3h2.4L85 22l4.9-4.8zm9.2-.7c-2.1 0-3.5.8-4.3 1.7-1.3 1.3-1.6 2.9-1.6 5.4 0 2.6.3 4.1 1.6 5.5.9.9 2.2 1.7 4.3 1.7s3.5-.8 4.4-1.7c1.3-1.3 1.6-2.9 1.6-5.5 0-2.5-.3-4.1-1.6-5.4-.9-.9-2.3-1.7-4.4-1.7zm1.7 10.6c-.4.4-.9.6-1.6.6s-1.2-.2-1.6-.6c-.7-.7-.8-2-.8-3.4 0-1.5.1-2.7.8-3.4.4-.4.9-.6 1.6-.6s1.2.2 1.6.6c.7.7.8 1.9.8 3.4 0 1.4-.1 2.6-.8 3.4zm13.6-10.5l-2.8 8.7-2.8-8.7H105l5.2 14h2.8l5.2-14h-3.8zm9.7-.1c-3.6 0-6.1 2.6-6.1 7.2 0 5.7 3.2 7.2 6.5 7.2 2.5 0 3.9-.8 5.3-2.2l-2.1-2.1c-.9.9-1.6 1.3-3.2 1.3-2 0-3.1-1.3-3.1-3.1h8.8v-1.6c0-3.9-2.2-6.7-6.1-6.7zm-2.7 5.8c0-.6.1-1 .3-1.5.4-.8 1.2-1.5 2.3-1.5 1.2 0 2 .6 2.3 1.5.2.5.3.9.3 1.5h-5.2zm13.9-4.3v-1.4h-3.4v14h3.5v-8.4c0-1.8 1.2-2.6 2.2-2.6.9 0 1.3.3 1.8.8l2.7-2.7c-1-1-1.9-1.3-3.3-1.3-1.4.1-2.8.8-3.5 1.6zm8-2.8v15.5h3.5V19.6h2.6v-2.7h-2.6v-1.6c0-.8.4-1.3 1.2-1.3h1.4v-3h-2c-2.9.1-4.1 2.2-4.1 4.2zm20.5 1.3c-2.1 0-3.5.8-4.3 1.7-1.3 1.3-1.6 2.9-1.6 5.4 0 2.6.3 4.1 1.6 5.5.9.9 2.2 1.7 4.3 1.7s3.5-.8 4.4-1.7c1.3-1.3 1.6-2.9 1.6-5.5 0-2.5-.3-4.1-1.6-5.4-.9-.9-2.4-1.7-4.4-1.7zm1.6 10.6c-.4.4-.9.6-1.6.6-.7 0-1.2-.2-1.6-.6-.7-.7-.8-2-.8-3.4 0-1.5.1-2.7.8-3.4.4-.4.9-.6 1.6-.6s1.2.2 1.6.6c.7.7.8 1.9.8 3.4 0 1.4-.1 2.6-.8 3.4zm20.9-10.5l-2.2 8.7-2.9-8.7h-2.6l-2.8 8.7-2.2-8.7h-3.7l4.3 14h2.9l2.9-8.8 2.9 8.8h2.9l4.3-14h-3.8zm-31.8 9.8V11.1H151v15.5c0 2 1.2 4 4.1 4h2v-3h-1.4c-.8.1-1.2-.3-1.2-1.2zm-102-7.1l1.8-1.8h-3.7v-4.4h-2v14c0 2 1.1 3.6 3.5 3.6h1.4v-1.8h-1c-1.3 0-1.8-.7-1.8-2v-7.7l1.8.1z"/><path class="st1" d="M26.6 34V24h3.3v13.3H0V24h3.3v10z"/><path class="st2" d="M7 23.1l16.3 3.4.7-3.3-16.3-3.4-.7 3.3zm2.1-7.8l15.1 7 1.4-3-15.1-7.1-1.4 3.1zm4.2-7.4l12.8 10.7 2.1-2.6L15.4 5.3l-2.1 2.6zM21.6 0l-2.7 2 9.9 13.4 2.7-2L21.6 0zm-15 30.6h16.7v-3.3H6.6v3.3z"/></svg>